# File created by Blade
# Date/Time:  Mon Sep 22 15:39:46 2014
# Frame Rate: 120.000 fps
#------------------------------------------------------
:FULLY-SPECIFIED
:DEGREES
4041
root 0.420823 37.050490 2.649415 1.198831 -22.884998 -1.381622
RightUpLeg 6.256288 10.310668 1.536984
RightLeg -5.773892 -0.000000 0.000000
RightFoot -9.559944 -11.510786 14.883673
RightToeBase 14.485853 -0.000000 -0.000000
LeftUpLeg 11.134215 16.681024 7.132325
LeftLeg -3.741335 -0.000000 0.000000
LeftFoot -11.912888 17.699453 -21.704122
LeftToeBase 6.909878 -0.000000 -0.000000
Spine 12.061466 -35.206839 -16.430555
RightShoulder -9.481878 -31.131178 -23.198041
RightArm -170.769303 -155.473176 -161.670985
RightForeArm 92.458071 -0.000000 96.160249
RightHand -2.254224 -0.000000 -9.451455
RightHandThumb1 -24.326973 -0.000000 -32.862282
LeftShoulder -17.519711 47.271615 -1.730915
LeftArm 21.053693 9.706766 -59.411308
LeftForeArm 12.936836 0.000000 41.719454
LeftHand -15.610745 -0.000000 -11.649552
LeftHandThumb1 -26.253704 0.000000 33.147579
Head 4.803172 -41.092527 6.771045
4042
root 0.419867 37.048428 2.649648 1.200907 -22.973223 -1.393328
RightUpLeg 6.260182 10.297356 1.541010
RightLeg -5.790050 -0.000000 0.000000
RightFoot -9.538959 -11.431165 14.862599
RightToeBase 14.468714 -0.000000 -0.000000
LeftUpLeg 11.154987 16.707632 7.136308
LeftLeg -3.730060 -0.000000 0.000000
LeftFoot -11.932894 17.747271 -21.657722
LeftToeBase 6.821072 -0.000000 -0.000000
Spine 12.027271 -35.119518 -16.404080
RightShoulder -9.475254 -31.081077 -23.209929
RightArm -170.785853 -155.891492 -161.614975
RightForeArm 92.333651 0.000000 96.249582
RightHand -2.320896 -0.000000 -9.449414
RightHandThumb1 -24.326973 -0.000000 -32.862282
LeftShoulder -17.508650 47.255645 -1.733615
LeftArm 21.052916 9.645633 -59.412560
LeftForeArm 13.019986 -0.000000 41.581202
LeftHand -15.833163 -0.000000 -11.335051
LeftHandThumb1 -26.253704 0.000000 33.147579
Head 4.874057 -41.104662 6.762635
4043
root 0.417886 37.046656 2.649934 1.206321 -23.036385 -1.408788
RightUpLeg 6.264801 10.284564 1.548747
RightLeg -5.806986 -0.000000 0.000000
RightFoot -9.522907 -11.348337 14.860152
RightToeBase 14.540739 -0.000000 -0.000000
LeftUpLeg 11.174379 16.737268 7.151837
LeftLeg -3.738622 -0.000000 0.000000
LeftFoot -12.000341 17.775768 -21.744073
LeftToeBase 6.935621 -0.000000 -0.000000
Spine 12.004597 -35.071901 -16.380720
RightShoulder -9.462788 -30.973164 -23.233197
RightArm -170.883239 -156.332537 -161.487799
RightForeArm 92.389184 0.000000 96.346413
RightHand -2.505192 0.000000 -8.904401
RightHandThumb1 -24.326973 -0.000000 -32.862282
LeftShoulder -17.546020 47.275974 -1.776001
LeftArm 21.103578 9.606378 -59.380758
LeftForeArm 12.992960 -0.000000 41.453351
LeftHand -15.807316 0.000000 -11.323646
LeftHandThumb1 -26.253704 0.000000 33.147579
Head 4.902178 -41.098602 6.783831
4044
root 0.416458 37.045362 2.650198 1.211305 -23.079009 -1.424540
RightUpLeg 6.277067 10.267978 1.558135
RightLeg -5.834156 -0.000000 0.000000
RightFoot -9.501439 -11.291165 14.868738
RightToeBase 14.569511 -0.000000 -0.000000
LeftUpLeg 11.193710 16.740203 7.162513
LeftLeg -3.753972 -0.000000 0.000000
LeftFoot -12.021875 17.825761 -21.736446
LeftToeBase 6.934659 -0.000000 -0.000000
Spine 12.001085 -35.046524 -16.362863
RightShoulder -9.471172 -30.863193 -23.252465
RightArm -170.995841 -156.859853 -161.295030
RightForeArm 92.543451 -0.000000 96.472013
RightHand -2.491072 0.000000 -8.706056
RightHandThumb1 -24.326973 -0.000000 -32.862282
LeftShoulder -17.575702 47.271251 -1.808213
LeftArm 21.145270 9.580495 -59.361858
LeftForeArm 12.970992 -0.000000 41.312202
LeftHand -15.790960 -0.000000 -11.273541
LeftHandThumb1 -26.253704 0.000000 33.147579
Head 4.882330 -41.087513 6.850255
4045
root 0.414438 37.043221 2.651582 1.209817 -23.110957 -1.435934
RightUpLeg 6.295846 10.271503 1.567993
RightLeg -5.857796 -0.000000 0.000000
RightFoot -9.492789 -11.267094 14.847106
RightToeBase 14.538852 -0.000000 -0.000000
LeftUpLeg 11.222373 16.779898 7.179092
LeftLeg -3.767451 -0.000000 0.000000
LeftFoot -11.989923 17.824424 -21.639412
LeftToeBase 6.846442 -0.000000 -0.000000
Spine 12.017108 -35.039768 -16.368555
RightShoulder -9.510786 -30.733667 -23.243652
RightArm -171.138437 -157.501662 -161.056084
RightForeArm 92.645671 0.000000 96.619964
RightHand -2.479545 0.000000 -8.644138
RightHandThumb1 -24.326973 -0.000000 -32.862282
LeftShoulder -17.608171 47.245748 -1.805423
LeftArm 21.181018 9.579877 -59.380163
LeftForeArm 12.971067 -0.000000 41.156576
LeftHand -15.800243 -0.000000 -11.171048
LeftHandThumb1 -26.253704 0.000000 33.147579
Head 4.826837 -41.081174 6.961458
4046
root 0.413567 37.042109 2.651539 1.216230 -23.128343 -1.441377
RightUpLeg 6.299065 10.287941 1.569915
RightLeg -5.874220 -0.000000 0.000000
RightFoot -9.488624 -11.237969 14.880525
RightToeBase 14.538051 -0.000000 -0.000000
LeftUpLeg 11.234723 16.803216 7.184044
LeftLeg -3.800788 -0.000000 0.000000
LeftFoot -12.023815 17.844065 -21.700097
LeftToeBase 6.937121 -0.000000 -0.000000
Spine 12.033833 -35.050379 -16.383317
RightShoulder -9.644011 -30.455557 -23.163892
RightArm -171.263927 -158.119183 -160.921809
RightForeArm 92.719251 0.000000 96.771823
RightHand -2.319160 -0.000000 -8.677669
RightHandThumb1 -24.326973 -0.000000 -32.862282
LeftShoulder -17.611236 47.211670 -1.785797
LeftArm 21.182204 9.558199 -59.426422
LeftForeArm 12.995852 0.000000 41.026945
LeftHand -15.827273 -0.000000 -11.070710
LeftHandThumb1 -26.253704 0.000000 33.147579
Head 4.761064 -41.083832 7.094539
4047
root 0.411859 37.040540 2.651027 1.231791 -23.144014 -1.458396
RightUpLeg 6.291666 10.324213 1.585874
RightLeg -5.878336 -0.000000 0.000000
RightFoot -9.499304 -11.265482 14.874672
RightToeBase 14.574908 -0.000000 -0.000000
LeftUpLeg 11.239073 16.853061 7.202407
LeftLeg -3.807681 -0.000000 0.000000
LeftFoot -11.984337 17.818217 -21.601349
LeftToeBase 6.805612 -0.000000 -0.000000
Spine 12.043158 -35.072071 -16.382318
RightShoulder -9.788500 -30.211938 -23.070194
RightArm -171.431901 -158.934063 -160.742197
RightForeArm 92.688081 -0.000000 96.974804
RightHand -2.240499 -0.000000 -8.770855
RightHandThumb1 -24.326973 -0.000000 -32.862282
LeftShoulder -17.614339 47.195996 -1.766370
LeftArm 21.182689 9.520948 -59.494997
LeftForeArm 12.998964 -0.000000 40.932216
LeftHand -15.890998 -0.000000 -10.975202
LeftHandThumb1 -26.253704 0.000000 33.147579
Head 4.698143 -41.078609 7.213134
4048
root 0.410131 37.039321 2.651343 1.246715 -23.153122 -1.470495
RightUpLeg 6.285392 10.345891 1.596865
RightLeg -5.882833 -0.000000 0.000000
RightFoot -9.494665 -11.255645 14.881856
RightToeBase 14.537414 -0.000000 -0.000000
LeftUpLeg 11.244203 16.911578 7.221961
LeftLeg -3.828881 -0.000000 0.000000
LeftFoot -12.009981 17.784011 -21.653019
LeftToeBase 6.920515 -0.000000 -0.000000
Spine 12.042484 -35.132957 -16.388458
RightShoulder -9.933141 -30.107228 -22.987249
RightArm -171.544876 -160.003683 -160.513536
RightForeArm 92.735109 -0.000000 97.165059
RightHand -1.888033 -0.000000 -9.119315
RightHandThumb1 -24.326973 -0.000000 -32.862282
LeftShoulder -17.599998 47.185970 -1.745395
LeftArm 21.137652 9.486243 -59.583714
LeftForeArm 12.973456 0.000000 40.866271
LeftHand -15.926762 -0.000000 -10.861640
LeftHandThumb1 -26.253704 0.000000 33.147579
Head 4.680628 -41.069921 7.285008
4049
root 0.406988 37.037621 2.651791 1.262267 -23.162631 -1.484513
RightUpLeg 6.278500 10.389413 1.615626
RightLeg -5.884974 -0.000000 0.000000
RightFoot -9.506600 -11.277883 14.888747
RightToeBase 14.547766 -0.000000 -0.000000
LeftUpLeg 11.252593 16.981048 7.245439
LeftLeg -3.849768 -0.000000 0.000000
LeftFoot -12.013549 17.743359 -21.655312
LeftToeBase 6.963117 -0.000000 -0.000000
Spine 12.043358 -35.223258 -16.405222
RightShoulder -10.060011 -29.787032 -22.882760
RightArm -171.801177 -161.077169 -160.287451
RightForeArm 92.691756 -0.000000 97.379588
RightHand -1.619963 -0.000000 -9.216314
RightHandThumb1 -24.326973 -0.000000 -32.862282
LeftShoulder -17.582535 47.187135 -1.697467
LeftArm 21.079380 9.448931 -59.723470
LeftForeArm 12.948000 -0.000000 40.797800
LeftHand -15.940076 -0.000000 -10.812901
LeftHandThumb1 -26.253704 0.000000 33.147579
Head 4.694014 -41.034127 7.344076
4050
root 0.404732 37.036239 2.652770 1.284294 -23.171760 -1.494489
RightUpLeg 6.264831 10.448991 1.630174
RightLeg -5.890369 -0.000000 0.000000
RightFoot -9.510968 -11.341691 14.846558
RightToeBase 14.497410 -0.000000 -0.000000
LeftUpLeg 11.248739 17.023133 7.256579
LeftLeg -3.861218 -0.000000 0.000000
LeftFoot -11.960403 17.723158 -21.560182
LeftToeBase 6.804957 -0.000000 -0.000000
Spine 12.019580 -35.329570 -16.416592
RightShoulder -10.117897 -29.460197 -22.837510
RightArm -172.159457 -162.327812 -159.902892
RightForeArm 92.724390 -0.000000 97.597589
RightHand -1.388039 -0.000000 -9.344898
RightHandThumb1 -24.326973 -0.000000 -32.862282
LeftShoulder -17.569863 47.213940 -1.642407
LeftArm 21.050381 9.436173 -59.875295
LeftForeArm 12.916086 -0.000000 40.705165
LeftHand -15.978941 -0.000000 -10.721931
LeftHandThumb1 -26.253704 0.000000 33.147579
Head 4.759608 -40.996215 7.361252
4051
root 0.401584 37.034930 2.654645 1.296362 -23.178735 -1.518474
RightUpLeg 6.269712 10.491726 1.655868
RightLeg -5.895974 -0.000000 0.000000
RightFoot -9.513400 -11.361079 14.845822
RightToeBase 14.511125 -0.000000 -0.000000
LeftUpLeg 11.266484 17.044870 7.285680
LeftLeg -3.885205 -0.000000 0.000000
LeftFoot -11.964611 17.710632 -21.563178
LeftToeBase 6.820581 -0.000000 -0.000000
Spine 12.012450 -35.451944 -16.425819
RightShoulder -10.148039 -29.107104 -22.812549
RightArm -172.601219 -163.768429 -159.413835
RightForeArm 92.817217 -0.000000 97.808910
RightHand -1.058502 -0.000000 -9.355813
RightHandThumb1 -24.326973 -0.000000 -32.862282
LeftShoulder -17.549749 47.238650 -1.562024
LeftArm 21.036236 9.469539 -60.031975
LeftForeArm 12.850832 -0.000000 40.588574
LeftHand -15.998402 -0.000000 -10.678391
LeftHandThumb1 -26.253704 0.000000 33.147579
Head 4.849846 -40.921350 7.378404
4052
root 0.396719 37.033993 2.657496 1.323070 -23.205956 -1.541390
RightUpLeg 6.258386 10.530827 1.678728
RightLeg -5.897115 -0.000000 0.000000
RightFoot -9.521160 -11.361655 14.859271
RightToeBase 14.525961 -0.000000 -0.000000
LeftUpLeg 11.286084 17.127541 7.316117
LeftLeg -3.930091 -0.000000 0.000000
LeftFoot -11.938779 17.687546 -21.518787
LeftToeBase 6.860032 -0.000000 -0.000000
Spine 11.965361 -35.591699 -16.414191
RightShoulder -10.155208 -28.864170 -22.817344
RightArm -173.053168 -165.515433 -158.821289
RightForeArm 92.955091 0.000000 98.042983
RightHand -0.757404 -0.000000 -9.539808
RightHandThumb1 -24.326973 -0.000000 -32.862282
LeftShoulder -17.585860 47.282869 -1.534009
LeftArm 21.054500 9.561861 -60.128067
LeftForeArm 12.709591 -0.000000 40.458087
LeftHand -15.997534 -0.000000 -10.672760
LeftHandThumb1 -26.253704 0.000000 33.147579
Head 4.958328 -40.810191 7.356931
